<svg id="Capa_1" enable-background="new 0 0 512 512" height="512" viewBox="0 0 512 512" width="512" fill="#E3B873" xmlns="http://www.w3.org/2000/svg"><g><path d="m66 30h5v57.446l80-46.319v-11.127h5c8.284 0 15-6.716 15-15s-6.716-15-15-15h-90c-8.284 0-15 6.716-15 15s6.716 15 15 15z"/><path d="m165.927 351.683-8.36 4.827 15 25.981 8.422-4.862c5.673-3.276 12.814-2.49 17.641 1.938 9.371 8.598 20.092 14.833 31.866 18.532 6.251 1.964 10.504 7.758 10.504 14.31v9.591h30v-9.592c0-6.552 4.253-12.346 10.504-14.31 11.774-3.7 22.495-9.935 31.866-18.532 4.826-4.428 11.969-5.212 17.641-1.938l8.422 4.862 15-25.981-8.36-4.827c-5.668-3.272-8.561-9.843-7.145-16.233 1.375-6.21 2.072-12.417 2.072-18.449s-.697-12.239-2.072-18.449c-1.416-6.391 1.477-12.961 7.145-16.233l8.36-4.827-15-25.981-8.422 4.862c-5.673 3.276-12.814 2.49-17.641-1.938-9.37-8.597-20.091-14.832-31.866-18.531-6.251-1.964-10.504-7.758-10.504-14.311v-9.592h-30v9.592c0 6.552-4.253 12.346-10.504 14.311-11.775 3.699-22.496 9.934-31.866 18.531-4.826 4.428-11.969 5.214-17.641 1.938l-8.422-4.862-15 25.981 8.36 4.827c5.668 3.272 8.561 9.843 7.145 16.233-1.375 6.21-2.072 12.417-2.072 18.449s.697 12.239 2.072 18.449c1.416 6.391-1.476 12.961-7.145 16.234zm90.073-89.683c30.327 0 55 24.673 55 55s-24.673 55-55 55-55-24.673-55-55 24.673-55 55-55z"/><circle cx="256" cy="317" r="25"/><path d="m497 482h-36v-232.758l-204.998-118.687-205.002 118.687v232.758h-36c-8.284 0-15 6.716-15 15s6.716 15 15 15h482c8.284 0 15-6.716 15-15s-6.716-15-15-15zm-356-165c0-4.6.294-9.255.877-13.927l-12.3-7.102c-3.445-1.989-5.959-5.265-6.989-9.108s-.491-7.937 1.499-11.382l30-51.962c4.141-7.175 13.315-9.634 20.49-5.49l12.353 7.131c7.489-5.678 15.536-10.359 24.071-14v-14.16c0-8.284 6.716-15 15-15h60c8.284 0 15 6.716 15 15v14.16c8.535 3.641 16.582 8.322 24.071 14l12.353-7.131c7.176-4.143 16.349-1.684 20.49 5.49l30 51.962c1.989 3.445 2.528 7.54 1.499 11.382s-3.543 7.119-6.989 9.108l-12.3 7.102c.581 4.672.875 9.327.875 13.927s-.294 9.255-.877 13.927l12.3 7.102c3.445 1.989 5.959 5.265 6.989 9.108s.491 7.937-1.499 11.382l-30 51.962c-1.989 3.445-5.265 5.959-9.108 6.989-3.844 1.031-7.937.491-11.382-1.499l-12.353-7.132c-7.49 5.679-15.535 10.359-24.07 14v14.161c0 8.284-6.716 15-15 15h-60c-8.284 0-15-6.716-15-15v-14.161c-8.535-3.641-16.581-8.321-24.07-14l-12.353 7.132c-3.445 1.988-7.54 2.528-11.382 1.499-3.843-1.029-7.119-3.543-9.108-6.989l-30-51.962c-1.989-3.445-2.528-7.54-1.499-11.382s3.543-7.119 6.989-9.108l12.3-7.102c-.583-4.672-.877-9.327-.877-13.927z"/><path d="m53.536 213.109 202.465-117.219 202.462 117.219c23.334 13.509 52.537-3.328 52.537-30.289v-.002c0-12.489-6.655-24.032-17.463-30.289l-215.003-124.484c-13.899-8.03-31.167-8.03-45.079.007l-214.992 124.478c-10.808 6.257-17.463 17.8-17.463 30.289 0 26.962 29.203 43.798 52.536 30.29z"/></g></svg>